<?xml version="1.0" standalone="no"?>
<!DOCTYPE svg PUBLIC "-//W3C//DTD SVG 20010904//EN"
 "http://www.w3.org/TR/2001/REC-SVG-20010904/DTD/svg10.dtd">
<svg version="1.0" xmlns="http://www.w3.org/2000/svg"
 width="1024.000000pt" height="1024.000000pt" viewBox="0 0 1024.000000 1024.000000"
 preserveAspectRatio="xMidYMid meet">
<metadata>
Created by potrace 1.15, written by Peter Selinger 2001-2017
</metadata>
<g transform="translate(0.000000,1024.000000) scale(0.100000,-0.100000)"
fill="#000000" stroke="none">
<path d="M4564 7927 l-551 -1702 -1679 -7 c-923 -4 -1734 -9 -1802 -10 l-123
-3 98 -71 c104 -75 2796 -2025 2800 -2028 1 -1 -243 -765 -542 -1697 -300
-932 -548 -1703 -551 -1713 -5 -14 -2 -18 8 -14 11 5 2723 1976 2854 2075 l31
23 1393 -1005 c1657 -1197 1520 -1099 1526 -1093 2 3 -242 758 -542 1679 -301
921 -548 1686 -548 1701 -1 25 117 113 1334 1004 734 537 1387 1014 1450 1060
l115 84 -1795 0 -1795 0 -559 1706 c-308 938 -563 1707 -566 1709 -3 2 -253
-762 -556 -1698z m1026 -397 c253 -773 470 -1433 481 -1467 l21 -63 1545 -2
1545 -3 -1251 -915 c-688 -503 -1251 -919 -1251 -924 0 -6 214 -666 476 -1469
261 -802 474 -1460 472 -1461 -2 -2 -569 406 -1261 906 l-1259 908 -71 -52
c-40 -28 -600 -436 -1245 -906 -646 -469 -1176 -852 -1178 -849 -3 3 872 2742
940 2942 2 6 -558 418 -1245 915 l-1249 905 408 6 c224 3 922 7 1552 8 l1146
1 468 1448 c258 796 473 1458 478 1472 6 14 12 21 14 15 2 -5 211 -642 464
-1415z"/>
</g>
</svg>
