<svg id="svg" version="1.1" width="400" height="400.942285041225" viewBox="0 0 400 400.942285041225" xmlns="http://www.w3.org/2000/svg" xmlns:xlink="http://www.w3.org/1999/xlink" ><g id="svgg"><path id="path0" d="M224.787 45.928 C 220.411 47.867,220.533 53.726,224.979 55.193 C 227.364 55.980,230.534 54.022,231.014 51.466 C 231.670 47.971,227.847 44.572,224.787 45.928 M63.635 78.789 L 60.715 82.022 75.405 113.711 C 83.484 131.140,90.793 146.888,91.647 148.708 C 93.511 152.678,93.504 152.547,91.976 154.800 C 81.584 170.125,84.757 191.281,99.067 202.085 C 101.825 204.168,102.620 201.887,91.137 224.864 C 79.260 248.632,80.815 246.152,78.385 245.194 C 65.715 240.200,48.473 242.349,36.206 250.451 C 2.839 272.488,9.502 323.126,47.457 335.969 C 79.653 346.863,113.439 320.306,110.335 286.545 C 110.140 284.423,110.052 282.615,110.139 282.528 C 110.359 282.308,120.322 279.646,133.800 276.206 C 136.660 275.476,143.230 273.780,148.400 272.436 C 158.695 269.761,182.077 263.732,195.800 260.214 C 198.660 259.481,203.495 258.233,206.545 257.441 C 209.595 256.648,212.143 256.000,212.207 256.000 C 212.271 256.000,212.781 256.780,213.340 257.733 C 216.361 262.888,224.922 268.000,230.534 268.000 C 231.599 268.000,231.679 268.095,231.452 269.100 C 230.415 273.703,227.403 286.537,224.999 296.600 C 222.445 307.288,220.378 316.103,219.378 320.558 C 218.211 325.765,218.049 326.000,215.635 326.000 C 202.145 326.000,190.919 341.530,194.527 355.200 C 200.033 376.057,227.932 379.580,238.294 360.726 L 239.400 358.715 265.000 358.857 L 290.600 359.000 292.891 357.494 C 294.151 356.665,295.600 355.828,296.111 355.634 C 297.021 355.288,299.666 353.555,301.544 352.074 C 302.782 351.098,293.692 350.800,262.735 350.800 L 241.200 350.800 241.200 348.684 C 241.200 341.177,235.457 332.016,228.600 328.583 C 227.199 327.882,226.219 327.136,226.247 326.791 C 226.272 326.466,227.060 322.960,227.997 319.000 C 228.934 315.040,230.291 309.280,231.014 306.200 C 231.737 303.120,232.888 298.260,233.571 295.400 C 234.254 292.540,235.336 287.950,235.975 285.200 C 239.368 270.602,240.040 267.744,240.224 267.145 C 240.335 266.785,241.544 265.835,242.913 265.034 C 249.056 261.437,253.961 253.990,254.000 248.200 C 254.022 244.938,254.056 244.909,258.136 244.615 C 260.151 244.470,265.670 244.005,270.400 243.584 C 275.130 243.162,284.850 242.356,292.000 241.793 C 299.150 241.230,307.591 240.543,310.758 240.266 L 316.517 239.763 317.319 241.581 C 325.476 260.069,353.748 251.651,350.373 231.739 C 347.398 214.189,322.563 212.127,316.881 228.959 C 315.824 232.089,316.718 231.827,303.800 232.783 C 297.420 233.255,288.420 233.987,283.800 234.409 C 276.463 235.081,266.053 235.897,255.400 236.636 L 252.200 236.858 250.812 234.394 C 248.251 229.848,243.238 225.949,238.202 224.586 L 235.600 223.881 235.600 218.054 C 235.600 211.079,234.918 173.899,234.608 163.947 L 234.388 156.895 238.027 155.165 C 250.082 149.436,252.788 134.564,243.492 125.123 C 234.415 115.903,219.369 118.465,213.403 130.246 L 211.805 133.400 211.808 138.200 C 211.813 147.046,216.646 153.573,225.252 156.360 L 226.704 156.830 227.035 181.715 C 227.217 195.402,227.373 210.537,227.383 215.348 L 227.400 224.096 224.800 224.980 C 222.075 225.907,218.333 228.111,217.038 229.552 C 215.930 230.785,215.784 230.731,209.823 226.900 C 206.827 224.975,203.346 222.748,202.088 221.952 C 200.830 221.155,196.290 218.233,192.000 215.459 C 187.710 212.685,183.300 209.865,182.200 209.193 C 181.100 208.521,179.155 207.303,177.878 206.486 C 176.600 205.668,170.338 201.670,163.961 197.600 C 155.736 192.350,152.420 190.026,152.549 189.600 C 152.648 189.270,153.110 187.959,153.573 186.686 C 165.146 154.934,130.536 127.861,101.108 145.647 C 100.287 146.143,99.550 146.470,99.470 146.374 C 99.390 146.278,97.299 141.790,94.823 136.400 C 92.347 131.010,89.819 125.520,89.206 124.200 C 88.594 122.880,87.598 120.720,86.994 119.400 C 86.391 118.080,85.183 115.470,84.310 113.600 C 83.437 111.730,82.307 109.300,81.798 108.200 C 81.289 107.100,80.243 104.850,79.474 103.200 C 78.705 101.550,75.729 95.124,72.861 88.919 C 69.993 82.715,67.400 77.170,67.100 76.597 L 66.554 75.555 63.635 78.789 M180.600 81.676 C 179.500 81.860,175.810 82.533,172.400 83.173 C 168.990 83.812,162.690 84.989,158.400 85.787 C 154.110 86.586,148.710 87.612,146.400 88.068 C 140.008 89.329,138.120 89.334,137.808 88.089 L 137.557 87.091 136.379 88.220 C 135.212 89.339,135.188 89.343,133.801 88.681 L 132.400 88.013 132.400 89.006 C 132.400 90.207,131.105 91.600,129.990 91.600 C 129.221 91.600,129.211 91.661,129.790 92.780 C 130.558 94.265,130.560 94.969,129.800 95.600 C 128.917 96.333,129.048 96.584,130.600 97.146 C 131.876 97.607,132.000 97.791,132.000 99.219 L 132.000 100.787 133.401 100.119 C 134.783 99.460,134.816 99.465,135.925 100.528 L 137.049 101.605 137.708 100.225 C 138.316 98.948,138.472 98.862,139.783 99.075 C 140.853 99.248,141.200 99.164,141.200 98.732 C 141.200 97.510,142.236 96.060,143.391 95.665 C 144.056 95.438,146.670 94.507,149.200 93.597 C 151.730 92.687,155.060 91.513,156.600 90.988 C 158.140 90.463,163.450 88.571,168.400 86.783 C 173.350 84.996,178.570 83.169,180.000 82.723 C 183.722 81.564,183.981 81.112,180.600 81.676 M308.160 135.360 C 307.006 136.514,306.800 137.000,306.800 138.566 C 306.800 144.135,314.293 145.372,316.036 140.090 C 317.589 135.385,311.682 131.838,308.160 135.360 M153.468 200.402 C 156.511 202.383,159.525 204.293,160.166 204.646 C 160.807 204.999,163.867 206.941,166.966 208.961 C 171.797 212.110,182.082 218.705,189.798 223.600 C 206.728 234.341,211.201 237.304,211.186 237.767 C 211.178 238.005,210.911 239.280,210.592 240.600 C 210.273 241.920,210.010 243.769,210.006 244.709 C 209.998 246.994,212.956 245.990,185.000 253.201 C 180.600 254.336,174.570 255.892,171.600 256.658 C 147.809 262.798,142.486 264.163,129.000 267.581 C 121.960 269.365,114.233 271.397,111.828 272.098 C 108.185 273.159,107.425 273.273,107.268 272.785 C 105.329 266.786,97.798 257.044,91.032 251.783 L 89.466 250.565 99.936 229.431 L 110.405 208.296 111.702 208.545 C 112.416 208.682,113.810 208.967,114.800 209.179 C 125.169 211.401,140.158 206.216,146.517 198.207 C 147.895 196.471,146.994 196.187,153.468 200.402 M296.487 278.665 C 290.752 281.492,293.022 290.000,299.512 290.000 C 301.577 290.000,301.810 289.895,303.500 288.206 L 305.294 286.411 305.129 283.819 C 304.831 279.141,300.618 276.629,296.487 278.665 M168.947 282.767 C 165.734 284.726,165.448 288.698,168.369 290.778 C 170.725 292.455,174.119 291.677,175.420 289.160 C 177.583 284.979,172.901 280.356,168.947 282.767 " stroke="none" fill="#fafafa" fill-rule="evenodd"></path><path id="path1" d="M184.400 15.302 C 181.210 15.511,178.510 15.820,178.400 15.988 C 178.290 16.156,176.940 16.415,175.400 16.564 C 170.227 17.062,163.600 18.131,163.600 18.467 C 163.600 18.650,163.216 18.800,162.746 18.800 C 161.415 18.800,151.824 20.843,151.600 21.174 C 151.490 21.337,149.690 21.869,147.600 22.357 C 145.510 22.844,143.170 23.562,142.400 23.951 C 141.630 24.340,139.830 24.981,138.400 25.376 C 136.970 25.770,135.710 26.217,135.600 26.368 C 135.490 26.519,133.780 27.152,131.800 27.774 C 129.820 28.395,128.110 29.021,128.000 29.163 C 127.890 29.306,126.990 29.753,126.000 30.158 C 122.941 31.407,117.407 34.148,117.267 34.482 C 117.193 34.657,116.973 34.800,116.778 34.800 C 116.313 34.800,111.859 36.882,111.600 37.221 C 111.490 37.365,110.455 37.913,109.300 38.439 C 108.145 38.965,107.200 39.510,107.200 39.650 C 107.200 39.790,106.165 40.421,104.900 41.052 C 103.635 41.684,102.538 42.340,102.463 42.511 C 102.388 42.682,101.642 43.171,100.805 43.598 C 99.968 44.024,99.040 44.605,98.742 44.887 C 98.444 45.169,97.734 45.640,97.164 45.933 C 96.594 46.227,95.514 46.991,94.764 47.632 C 94.014 48.274,93.248 48.799,93.063 48.799 C 92.535 48.801,90.802 50.269,91.044 50.510 C 91.163 50.629,90.887 50.846,90.430 50.990 C 89.974 51.135,89.600 51.570,89.600 51.957 C 89.600 53.063,87.783 54.497,86.225 54.621 C 84.870 54.728,84.056 55.291,81.198 58.100 C 80.583 58.705,79.926 59.199,79.740 59.197 C 79.369 59.194,79.309 59.251,70.670 67.878 C 63.336 75.202,62.400 76.194,62.400 76.644 C 62.400 76.841,61.232 78.082,59.805 79.401 C 58.378 80.720,57.208 82.012,57.205 82.271 C 57.202 82.530,56.750 83.096,56.200 83.529 C 55.650 83.961,55.200 84.483,55.200 84.688 C 55.200 84.893,54.750 85.483,54.200 86.000 C 53.650 86.517,53.200 87.080,53.200 87.252 C 53.200 87.423,52.770 88.042,52.245 88.627 C 50.546 90.521,50.201 90.987,49.075 92.908 C 48.465 93.949,47.815 94.800,47.630 94.800 C 47.445 94.800,47.187 95.115,47.058 95.500 C 46.685 96.607,45.476 98.538,44.497 99.588 C 44.004 100.117,43.600 100.753,43.600 101.000 C 43.600 101.247,43.280 101.798,42.890 102.225 C 42.499 102.651,41.660 104.035,41.025 105.300 C 40.389 106.565,39.753 107.600,39.611 107.600 C 39.469 107.600,38.913 108.588,38.376 109.796 C 37.839 111.004,37.292 111.994,37.160 111.996 C 37.028 111.998,36.409 113.215,35.785 114.700 C 35.160 116.185,34.529 117.490,34.381 117.600 C 33.991 117.892,32.400 121.610,32.400 122.231 C 32.400 122.522,32.163 122.904,31.874 123.080 C 31.584 123.256,30.921 124.570,30.399 126.000 C 29.877 127.430,29.340 128.690,29.205 128.800 C 29.070 128.910,28.434 130.620,27.791 132.600 C 27.149 134.580,26.504 136.290,26.358 136.400 C 26.212 136.510,25.777 137.770,25.392 139.200 C 25.006 140.630,24.460 142.177,24.176 142.639 C 23.893 143.100,23.161 145.530,22.550 148.039 C 21.938 150.547,21.307 152.692,21.148 152.805 C 20.829 153.032,19.409 159.808,18.965 163.225 C 18.809 164.421,18.547 165.490,18.381 165.600 C 18.010 165.847,16.920 174.098,16.552 179.444 C 16.402 181.620,16.082 183.528,15.840 183.685 C 15.166 184.123,15.225 216.475,15.900 216.700 C 16.192 216.797,16.403 217.562,16.408 218.533 C 16.415 220.094,17.214 227.700,17.843 232.200 C 17.997 233.300,18.241 234.290,18.385 234.400 C 18.529 234.510,19.156 237.300,19.778 240.600 C 20.400 243.900,21.051 246.782,21.224 247.003 C 21.396 247.225,21.825 248.647,22.177 250.162 C 22.886 253.221,22.837 253.387,20.474 255.980 C 18.423 258.230,17.992 258.790,17.138 260.316 C 16.680 261.132,15.988 262.250,15.599 262.800 C 15.210 263.350,14.594 264.514,14.230 265.386 C 13.867 266.258,13.431 267.068,13.263 267.186 C 13.095 267.304,12.441 269.020,11.809 271.000 C 11.177 272.980,10.545 274.690,10.405 274.800 C 9.363 275.618,8.252 286.319,8.499 293.154 C 8.696 298.600,9.762 305.943,10.422 306.400 C 10.580 306.510,11.086 307.821,11.546 309.314 C 12.006 310.807,12.836 312.802,13.391 313.749 C 13.946 314.696,14.400 315.703,14.400 315.987 C 14.400 316.271,15.120 317.558,16.000 318.847 C 16.880 320.136,17.600 321.379,17.600 321.608 C 17.600 321.837,17.877 322.131,18.215 322.261 C 18.553 322.391,19.120 323.060,19.474 323.748 C 20.219 325.195,27.223 332.311,29.000 333.427 C 29.660 333.842,30.335 334.394,30.500 334.655 C 30.665 334.915,31.655 335.540,32.700 336.044 C 33.745 336.547,34.840 337.195,35.133 337.484 C 35.983 338.321,42.012 341.043,44.195 341.574 C 45.292 341.841,46.282 342.209,46.395 342.392 C 47.899 344.826,77.216 344.895,78.765 342.469 C 79.337 341.573,81.545 341.527,82.280 342.396 C 82.676 342.864,83.630 343.633,84.400 344.105 C 85.170 344.577,86.035 345.287,86.323 345.682 C 86.610 346.077,87.101 346.400,87.413 346.400 C 87.726 346.400,88.276 346.850,88.637 347.400 C 88.997 347.950,89.500 348.400,89.755 348.400 C 90.009 348.400,90.844 348.912,91.609 349.539 C 92.374 350.165,93.796 351.177,94.769 351.787 C 95.741 352.397,96.731 353.052,96.969 353.242 C 98.222 354.246,102.860 357.200,103.183 357.200 C 103.390 357.200,104.044 357.650,104.638 358.200 C 105.797 359.274,106.641 359.478,106.886 358.743 C 107.173 357.881,110.800 360.352,110.800 361.409 C 110.800 361.667,111.565 362.218,112.500 362.632 C 113.435 363.047,114.401 363.578,114.648 363.812 C 114.894 364.046,116.199 364.676,117.548 365.212 C 118.896 365.748,120.000 366.302,120.000 366.444 C 120.000 366.586,121.125 367.121,122.500 367.632 C 123.875 368.143,125.233 368.791,125.518 369.070 C 125.803 369.350,127.236 369.950,128.703 370.403 C 130.169 370.856,131.466 371.365,131.584 371.534 C 131.703 371.704,133.420 372.359,135.400 372.991 C 137.380 373.623,139.090 374.255,139.200 374.397 C 139.310 374.538,140.930 375.079,142.800 375.600 C 144.670 376.121,146.293 376.681,146.406 376.845 C 146.519 377.009,148.859 377.637,151.606 378.241 C 154.353 378.845,156.690 379.450,156.800 379.586 C 157.026 379.865,162.587 380.952,167.400 381.658 C 169.160 381.916,170.690 382.254,170.800 382.408 C 171.235 383.019,181.301 383.683,181.661 383.125 C 181.938 382.696,182.066 382.703,182.361 383.160 C 183.579 385.052,229.600 384.248,229.600 382.335 C 229.600 382.151,230.036 382.000,230.568 382.000 C 232.178 382.000,243.110 380.059,243.881 379.636 C 244.276 379.420,246.715 378.761,249.300 378.173 C 251.885 377.586,254.000 376.980,254.000 376.827 C 254.000 376.675,255.620 376.132,257.600 375.622 C 259.580 375.111,261.200 374.538,261.200 374.347 C 261.200 374.156,261.415 374.000,261.677 374.000 C 262.632 374.000,268.800 371.920,268.800 371.598 C 268.800 371.416,270.063 370.876,271.607 370.398 C 273.151 369.920,274.648 369.294,274.935 369.008 C 275.222 368.721,276.493 368.160,277.759 367.760 C 279.024 367.361,280.233 366.712,280.444 366.317 C 280.655 365.923,281.092 365.600,281.414 365.600 C 281.736 365.600,282.000 365.343,282.000 365.029 C 282.000 364.060,286.357 361.841,288.304 361.819 C 289.253 361.809,290.157 361.595,290.314 361.345 C 290.471 361.095,291.320 360.592,292.200 360.229 C 295.341 358.931,296.000 358.601,296.000 358.325 C 296.000 358.171,297.080 357.560,298.400 356.968 C 299.720 356.375,300.805 355.780,300.811 355.645 C 300.817 355.510,301.537 354.959,302.411 354.420 C 303.285 353.880,304.000 353.295,304.000 353.120 C 304.000 352.944,304.239 352.800,304.530 352.800 C 304.822 352.800,305.483 352.350,306.000 351.800 C 306.517 351.250,307.178 350.800,307.470 350.800 C 307.761 350.800,308.000 350.622,308.000 350.405 C 308.000 350.188,308.704 349.566,309.564 349.023 C 310.425 348.479,311.585 347.622,312.143 347.118 C 312.702 346.613,313.720 345.750,314.406 345.200 C 315.093 344.650,316.196 343.705,316.858 343.100 C 317.520 342.495,318.154 342.000,318.268 342.000 C 319.020 342.000,322.502 338.831,330.670 330.713 C 338.345 323.085,339.735 321.562,345.128 314.870 C 345.718 314.139,346.695 312.974,347.300 312.281 C 347.905 311.589,348.400 310.882,348.400 310.711 C 348.400 310.540,348.715 310.080,349.100 309.689 C 350.013 308.761,352.000 305.721,352.000 305.251 C 352.000 305.050,352.262 304.785,352.582 304.662 C 352.902 304.539,353.536 303.710,353.990 302.819 C 354.444 301.929,354.964 301.200,355.144 301.200 C 355.324 301.200,355.695 300.705,355.968 300.100 C 356.242 299.495,357.049 298.100,357.763 297.000 C 358.477 295.900,359.294 294.415,359.579 293.700 C 359.864 292.985,360.211 292.400,360.349 292.400 C 360.488 292.400,361.047 291.545,361.591 290.500 C 362.135 289.455,362.700 288.510,362.845 288.400 C 362.991 288.290,363.601 287.030,364.200 285.600 C 364.799 284.170,365.427 282.910,365.594 282.800 C 365.925 282.582,367.340 279.540,367.779 278.100 C 367.930 277.605,368.222 277.200,368.427 277.200 C 368.632 277.200,368.800 276.851,368.800 276.424 C 368.800 275.997,368.955 275.551,369.145 275.434 C 369.335 275.317,369.718 274.406,369.997 273.410 C 370.276 272.415,370.629 271.600,370.783 271.600 C 370.936 271.600,371.574 270.115,372.201 268.300 C 372.827 266.485,373.467 264.910,373.623 264.800 C 373.779 264.690,374.296 263.210,374.771 261.512 C 375.246 259.813,375.885 257.942,376.190 257.354 C 376.495 256.765,377.151 254.555,377.647 252.442 C 378.144 250.329,378.660 248.510,378.794 248.400 C 379.148 248.111,379.805 245.546,380.639 241.200 C 381.039 239.110,381.476 237.310,381.609 237.200 C 384.091 235.144,384.051 163.768,381.567 162.867 C 381.365 162.793,381.199 162.343,381.197 161.867 C 381.192 160.519,379.260 151.558,378.866 151.052 C 378.672 150.803,378.108 148.890,377.613 146.800 C 377.118 144.710,376.468 142.550,376.170 142.000 C 375.872 141.450,375.241 139.650,374.769 138.000 C 374.297 136.350,373.777 134.910,373.614 134.800 C 373.451 134.690,372.816 133.115,372.203 131.300 C 371.590 129.485,370.933 128.000,370.744 128.000 C 370.555 128.000,370.400 127.754,370.400 127.453 C 370.400 126.694,368.701 122.630,368.315 122.467 C 368.142 122.393,368.000 122.155,368.000 121.938 C 368.000 120.456,362.071 109.731,360.057 107.569 C 359.586 107.063,359.200 106.439,359.200 106.183 C 359.200 105.927,358.795 105.266,358.300 104.715 C 357.356 103.664,356.625 102.536,355.697 100.700 C 355.391 100.095,354.995 99.600,354.816 99.600 C 354.637 99.600,354.196 98.978,353.836 98.219 C 353.475 97.459,352.948 96.604,352.664 96.319 C 352.380 96.033,351.628 94.900,350.994 93.800 C 350.359 92.700,349.606 91.656,349.320 91.480 C 349.034 91.304,348.800 90.942,348.800 90.676 C 348.800 90.410,348.306 89.659,347.703 89.009 C 346.547 87.762,345.338 85.875,344.942 84.700 C 344.813 84.315,344.551 84.000,344.361 84.000 C 344.172 84.000,343.652 83.286,343.207 82.413 C 342.762 81.541,342.038 80.634,341.599 80.399 C 341.159 80.164,340.800 79.753,340.800 79.486 C 340.800 78.930,340.908 79.044,331.137 69.236 C 322.432 60.498,321.077 59.200,320.661 59.200 C 320.488 59.200,319.683 58.560,318.873 57.777 C 316.361 55.351,315.725 54.800,315.440 54.800 C 315.289 54.800,314.113 53.945,312.827 52.900 C 309.374 50.093,308.029 49.100,306.864 48.496 C 306.289 48.197,305.721 47.796,305.602 47.604 C 305.302 47.117,299.258 43.200,298.808 43.200 C 298.605 43.200,298.296 42.953,298.120 42.652 C 297.944 42.351,296.765 41.618,295.500 41.023 C 294.235 40.428,293.200 39.787,293.200 39.598 C 293.200 39.409,292.795 39.130,292.300 38.978 C 291.805 38.826,290.410 38.104,289.200 37.373 C 287.990 36.642,286.190 35.732,285.200 35.350 C 284.210 34.968,283.310 34.535,283.200 34.387 C 282.638 33.635,281.060 33.190,279.794 33.427 C 278.847 33.605,278.400 33.539,278.400 33.221 C 278.400 32.963,278.236 32.854,278.035 32.978 C 277.834 33.103,276.919 32.483,276.001 31.601 C 275.084 30.720,273.898 29.889,273.367 29.756 C 272.835 29.622,272.400 29.381,272.400 29.220 C 272.400 29.059,271.275 28.596,269.900 28.191 C 268.525 27.787,266.320 26.967,265.000 26.370 C 263.680 25.773,261.655 25.051,260.500 24.766 C 259.345 24.482,258.400 24.128,258.400 23.981 C 258.400 23.833,256.015 23.206,253.100 22.587 C 250.185 21.969,247.710 21.349,247.600 21.211 C 247.174 20.675,243.287 20.064,241.678 20.280 C 240.279 20.468,239.859 20.360,239.246 19.654 C 238.839 19.184,238.302 18.800,238.053 18.800 C 237.804 18.800,237.600 18.659,237.600 18.486 C 237.600 18.161,229.901 16.965,225.000 16.528 C 223.460 16.391,222.110 16.149,222.000 15.991 C 221.300 14.987,196.219 14.527,184.400 15.302 M228.049 45.607 C 230.028 46.157,231.600 48.441,231.600 50.769 C 231.600 56.262,223.022 57.478,221.292 52.230 C 219.873 47.923,223.519 44.349,228.049 45.607 M75.993 94.600 C 80.875 105.160,85.284 114.700,85.791 115.800 C 86.298 116.900,87.470 119.420,88.396 121.400 C 89.321 123.380,90.614 126.170,91.269 127.600 C 91.924 129.030,92.986 131.325,93.630 132.700 C 94.861 135.329,96.266 138.347,98.427 143.000 C 99.142 144.540,99.776 145.863,99.837 145.940 C 99.898 146.018,100.561 145.613,101.311 145.040 C 102.062 144.468,102.842 144.000,103.045 144.000 C 103.248 144.000,104.041 143.590,104.807 143.089 C 105.573 142.589,107.280 141.847,108.600 141.441 C 109.920 141.035,111.720 140.435,112.600 140.107 C 117.982 138.104,129.462 139.436,136.397 142.867 C 152.583 150.875,160.714 171.727,153.772 187.425 C 153.219 188.676,152.821 189.755,152.889 189.822 C 153.250 190.184,167.694 199.467,173.390 202.998 C 174.044 203.404,174.764 203.890,174.990 204.079 C 175.215 204.268,176.750 205.260,178.400 206.282 C 180.050 207.305,182.930 209.143,184.800 210.366 C 186.670 211.590,188.560 212.787,189.000 213.026 C 189.440 213.266,191.690 214.685,194.000 216.180 C 200.508 220.391,200.809 220.584,204.000 222.600 C 209.168 225.865,209.728 226.226,212.670 228.187 L 215.540 230.100 217.870 228.292 C 220.450 226.290,222.973 224.916,225.400 224.190 C 226.951 223.726,227.000 223.658,227.000 221.956 C 227.000 214.494,226.343 170.289,226.145 164.366 L 225.895 156.932 223.698 156.256 C 221.386 155.544,220.350 154.878,217.216 152.089 C 201.043 137.696,219.167 111.533,238.719 121.046 C 253.431 128.205,252.618 150.661,237.454 156.018 L 235.400 156.743 235.484 177.672 C 235.530 189.182,235.685 204.212,235.829 211.071 L 236.091 223.542 238.145 224.034 C 242.835 225.158,248.939 229.878,251.421 234.300 C 252.762 236.689,253.487 236.848,259.123 235.995 C 260.596 235.772,268.910 235.045,277.600 234.379 C 286.290 233.714,296.100 232.918,299.400 232.611 C 302.700 232.304,307.603 231.927,310.296 231.773 C 315.593 231.469,315.614 231.459,316.344 228.906 C 320.752 213.487,343.718 212.883,349.810 228.026 C 357.971 248.313,328.351 262.422,317.769 243.288 C 316.951 241.809,316.236 240.542,316.179 240.471 C 316.014 240.265,298.500 241.561,295.200 242.023 C 293.550 242.254,286.170 242.894,278.800 243.446 C 271.430 243.998,262.970 244.663,260.000 244.925 L 254.600 245.400 254.302 248.391 C 253.584 255.587,249.747 261.575,243.461 265.310 C 241.955 266.205,240.670 267.131,240.606 267.369 C 240.460 267.908,239.138 273.750,237.578 280.751 C 236.922 283.693,236.299 286.240,236.194 286.409 C 236.090 286.578,235.545 288.851,234.985 291.458 C 234.424 294.066,233.702 297.100,233.381 298.200 C 233.059 299.300,232.331 302.270,231.764 304.800 C 229.016 317.049,228.416 319.629,227.639 322.564 C 226.549 326.674,226.573 327.137,227.900 327.729 C 235.401 331.072,240.626 338.754,241.554 347.800 L 241.800 350.200 272.395 350.528 C 302.984 350.857,304.046 350.899,302.658 351.747 C 302.250 351.996,301.336 352.650,300.628 353.200 C 299.920 353.750,298.636 354.560,297.776 355.000 C 296.916 355.440,295.977 356.020,295.688 356.289 C 295.400 356.558,294.408 357.147,293.482 357.598 C 292.557 358.049,291.350 358.681,290.800 359.003 C 289.952 359.499,286.004 359.589,264.762 359.594 C 236.578 359.601,239.535 359.247,237.476 362.857 C 230.922 374.346,213.351 377.007,202.353 368.176 C 185.614 354.737,193.888 327.588,215.403 325.356 L 217.806 325.106 218.742 321.053 C 219.256 318.824,220.214 314.750,220.869 312.000 C 221.524 309.250,222.407 305.470,222.831 303.600 C 223.255 301.730,224.126 298.040,224.767 295.400 C 227.101 285.789,227.691 283.308,228.810 278.400 C 229.437 275.650,230.224 272.327,230.558 271.017 C 231.288 268.157,231.630 268.527,227.613 267.826 C 221.785 266.808,216.204 263.089,213.091 258.147 L 212.049 256.494 209.925 257.022 C 208.756 257.313,205.280 258.210,202.200 259.016 C 196.828 260.421,190.855 261.967,181.400 264.401 C 178.980 265.024,174.120 266.287,170.600 267.208 C 167.080 268.128,162.424 269.300,160.254 269.811 C 158.084 270.323,155.834 270.927,155.254 271.155 C 154.674 271.383,152.490 271.948,150.400 272.411 C 148.310 272.874,146.133 273.432,145.561 273.650 C 144.990 273.868,142.380 274.564,139.761 275.198 C 137.143 275.831,132.570 276.985,129.600 277.763 C 126.630 278.541,122.310 279.638,120.000 280.202 C 117.690 280.766,114.628 281.590,113.195 282.033 L 110.590 282.839 110.738 288.576 C 111.966 336.068,53.078 357.301,24.107 319.812 C 21.450 316.373,19.953 313.991,19.199 312.000 C 18.907 311.230,18.440 310.329,18.161 309.998 C 17.882 309.667,17.207 307.867,16.662 305.998 C 16.117 304.129,15.483 302.116,15.254 301.524 C 13.749 297.633,13.810 283.875,15.353 279.123 C 15.661 278.175,16.230 276.320,16.618 275.000 C 23.603 251.235,52.266 236.389,76.336 244.069 C 78.391 244.724,80.126 245.202,80.191 245.130 C 80.521 244.767,85.108 235.957,85.778 234.400 C 86.204 233.410,86.682 232.420,86.842 232.200 C 87.002 231.980,90.270 225.536,94.106 217.879 L 101.080 203.958 100.040 203.419 C 98.744 202.746,95.581 199.699,93.170 196.800 C 82.916 184.475,82.634 167.034,92.466 153.161 C 92.820 152.661,92.697 152.052,91.901 150.361 C 91.342 149.173,90.303 146.940,89.593 145.400 C 88.883 143.860,87.800 141.520,87.186 140.200 C 86.573 138.880,85.496 136.540,84.794 135.000 C 83.399 131.938,81.823 128.527,79.806 124.200 C 79.089 122.660,77.957 120.230,77.292 118.800 C 76.626 117.370,75.164 114.254,74.041 111.876 C 72.918 109.498,71.999 107.428,71.998 107.276 C 71.996 107.124,71.708 106.460,71.357 105.800 C 68.661 100.730,60.391 82.119,60.666 81.742 C 61.997 79.915,66.650 74.970,66.858 75.162 C 67.000 75.293,71.111 84.040,75.993 94.600 M186.180 80.768 C 185.784 81.152,183.094 82.159,178.000 83.831 C 176.350 84.373,174.640 84.993,174.200 85.210 C 173.760 85.427,171.870 86.131,170.000 86.776 C 168.130 87.420,164.800 88.594,162.600 89.384 C 158.721 90.778,155.014 92.066,148.800 94.180 C 144.439 95.664,142.800 96.451,142.800 97.061 C 142.800 97.357,142.530 97.600,142.200 97.600 C 141.827 97.600,141.600 97.978,141.600 98.600 C 141.600 99.500,141.440 99.600,140.000 99.600 C 139.120 99.600,138.396 99.735,138.391 99.900 C 138.386 100.065,138.030 100.650,137.600 101.200 L 136.818 102.200 135.858 101.014 C 134.980 99.930,134.805 99.869,133.830 100.314 C 132.079 101.111,131.659 100.931,131.524 99.323 C 131.414 98.008,131.247 97.807,130.000 97.487 C 128.167 97.017,128.184 97.060,129.258 95.607 C 130.161 94.386,130.167 94.317,129.493 93.143 C 128.544 91.488,128.597 91.327,130.200 91.026 C 131.251 90.829,131.600 90.563,131.600 89.956 C 131.600 88.159,132.280 87.588,133.703 88.189 C 134.898 88.693,135.097 88.663,136.226 87.804 C 137.443 86.879,137.456 86.878,137.954 87.675 C 138.269 88.180,138.736 88.405,139.209 88.282 C 139.623 88.174,140.015 88.227,140.081 88.401 C 140.146 88.576,142.000 88.383,144.200 87.973 C 146.400 87.564,151.080 86.699,154.600 86.051 C 158.120 85.403,161.851 84.677,162.892 84.437 C 163.932 84.197,167.442 83.563,170.692 83.028 C 173.941 82.494,176.881 81.947,177.225 81.814 C 179.427 80.960,186.880 80.090,186.180 80.768 M312.867 133.612 C 318.642 135.216,317.554 144.000,311.581 144.000 C 304.839 144.000,304.497 134.373,311.200 133.238 C 311.310 133.220,312.060 133.388,312.867 133.612 M145.021 200.248 C 136.514 208.249,125.597 211.534,114.404 209.461 C 112.537 209.115,110.886 208.959,110.735 209.116 C 110.449 209.414,99.896 230.553,93.722 243.198 L 90.109 250.596 91.728 251.798 C 97.309 255.943,102.866 262.747,106.352 269.703 C 107.095 271.186,107.905 272.396,108.152 272.392 C 108.573 272.384,112.771 271.297,118.187 269.793 C 119.500 269.428,122.020 268.794,123.787 268.385 C 130.986 266.716,136.770 265.266,137.140 265.037 C 137.356 264.904,139.752 264.267,142.466 263.621 C 145.180 262.976,149.470 261.906,152.000 261.242 C 167.960 257.058,177.666 254.565,183.274 253.209 C 185.844 252.588,188.132 251.966,188.358 251.826 C 188.583 251.687,190.980 251.039,193.684 250.387 C 199.673 248.943,206.077 247.342,208.100 246.783 C 209.538 246.385,209.600 246.297,209.600 244.639 C 209.600 242.897,210.129 239.557,210.597 238.347 C 210.867 237.649,208.899 236.257,197.400 229.011 C 196.080 228.180,193.290 226.385,191.200 225.023 C 189.110 223.662,186.140 221.758,184.600 220.794 C 182.204 219.294,178.257 216.771,172.400 212.997 C 171.630 212.501,169.650 211.238,168.000 210.191 C 164.090 207.709,160.354 205.317,159.600 204.812 C 158.073 203.789,153.912 201.169,152.912 200.601 C 152.300 200.254,151.080 199.442,150.200 198.798 C 148.104 197.264,148.233 197.228,145.021 200.248 M302.864 278.585 C 305.537 280.401,306.630 283.952,305.348 286.653 C 302.302 293.071,292.800 291.188,292.800 284.166 C 292.800 278.984,298.665 275.732,302.864 278.585 M173.346 282.152 C 177.080 283.712,177.597 288.816,174.253 291.107 C 171.859 292.748,168.434 292.117,166.808 289.735 C 163.848 285.400,168.422 280.094,173.346 282.152 " stroke="none" fill="#131c44" fill-rule="evenodd"></path><path id="path2" d="M240.380 19.776 C 240.643 20.093,241.115 20.254,241.429 20.133 C 242.369 19.773,242.075 19.200,240.951 19.200 C 240.083 19.200,239.985 19.300,240.380 19.776 M221.293 50.400 C 221.293 51.170,221.375 51.485,221.476 51.100 C 221.576 50.715,221.576 50.085,221.476 49.700 C 221.375 49.315,221.293 49.630,221.293 50.400 M183.000 81.200 C 182.864 81.420,183.113 81.600,183.553 81.600 C 183.993 81.600,184.464 81.420,184.600 81.200 C 184.736 80.980,184.487 80.800,184.047 80.800 C 183.607 80.800,183.136 80.980,183.000 81.200 M154.200 91.814 C 153.200 92.296,153.166 92.351,154.000 92.148 C 155.133 91.871,156.407 91.221,155.800 91.230 C 155.580 91.233,154.860 91.496,154.200 91.814 M128.800 96.631 C 128.800 96.901,130.878 97.656,131.076 97.457 C 131.167 97.367,130.692 97.101,130.020 96.867 C 129.349 96.633,128.800 96.527,128.800 96.631 M134.400 99.882 C 134.730 100.003,135.450 100.484,136.000 100.951 L 137.000 101.800 136.030 100.700 C 135.497 100.095,134.777 99.614,134.430 99.632 C 133.891 99.659,133.886 99.695,134.400 99.882 M229.500 119.482 C 229.995 119.578,230.805 119.578,231.300 119.482 C 231.795 119.387,231.390 119.309,230.400 119.309 C 229.410 119.309,229.005 119.387,229.500 119.482 M216.800 125.000 C 215.828 125.990,215.123 126.800,215.233 126.800 C 215.343 126.800,216.228 125.990,217.200 125.000 C 218.172 124.010,218.877 123.200,218.767 123.200 C 218.657 123.200,217.772 124.010,216.800 125.000 M91.228 128.600 C 91.228 128.820,91.486 129.450,91.800 130.000 C 92.114 130.550,92.372 130.820,92.372 130.600 C 92.372 130.380,92.114 129.750,91.800 129.200 C 91.486 128.650,91.228 128.380,91.228 128.600 M93.628 133.800 C 93.628 134.020,93.886 134.650,94.200 135.200 C 94.514 135.750,94.772 136.020,94.772 135.800 C 94.772 135.580,94.514 134.950,94.200 134.400 C 93.886 133.850,93.628 133.580,93.628 133.800 M310.705 133.883 C 311.202 133.979,311.922 133.975,312.305 133.875 C 312.687 133.775,312.280 133.696,311.400 133.701 C 310.520 133.705,310.207 133.787,310.705 133.883 M211.301 138.200 C 211.305 139.080,211.387 139.393,211.483 138.895 C 211.579 138.398,211.575 137.678,211.475 137.295 C 211.375 136.913,211.296 137.320,211.301 138.200 M123.505 139.883 C 124.002 139.979,124.722 139.975,125.105 139.875 C 125.487 139.775,125.080 139.696,124.200 139.701 C 123.320 139.705,123.007 139.787,123.505 139.883 M98.806 145.100 C 98.818 145.682,99.512 146.496,99.870 146.349 C 100.070 146.267,99.911 145.885,99.517 145.500 C 99.123 145.115,98.803 144.935,98.806 145.100 M90.428 146.600 C 90.428 146.820,90.686 147.450,91.000 148.000 C 91.314 148.550,91.572 148.820,91.572 148.600 C 91.572 148.380,91.314 147.750,91.000 147.200 C 90.686 146.650,90.428 146.380,90.428 146.600 M145.200 149.800 C 146.617 151.230,147.867 152.400,147.977 152.400 C 148.087 152.400,147.017 151.230,145.600 149.800 C 144.183 148.370,142.933 147.200,142.823 147.200 C 142.713 147.200,143.783 148.370,145.200 149.800 M243.178 151.900 L 241.800 153.400 243.300 152.022 C 244.696 150.738,244.984 150.400,244.678 150.400 C 244.612 150.400,243.937 151.075,243.178 151.900 M220.800 154.596 C 220.800 154.870,223.249 156.084,223.432 155.901 C 223.519 155.814,222.962 155.444,222.195 155.078 C 221.428 154.712,220.800 154.495,220.800 154.596 M238.000 155.200 C 237.230 155.622,236.744 155.974,236.920 155.983 C 237.344 156.005,239.600 154.832,239.600 154.590 C 239.600 154.328,239.577 154.337,238.000 155.200 M234.566 156.945 C 234.451 157.244,234.414 158.549,234.484 159.845 L 234.612 162.200 234.806 159.299 C 235.001 156.388,234.954 155.933,234.566 156.945 M226.566 164.000 C 226.566 168.070,226.625 169.735,226.698 167.700 C 226.771 165.665,226.771 162.335,226.698 160.300 C 226.625 158.265,226.566 159.930,226.566 164.000 M152.200 159.600 C 152.541 160.260,152.911 160.800,153.021 160.800 C 153.131 160.800,152.941 160.260,152.600 159.600 C 152.259 158.940,151.889 158.400,151.779 158.400 C 151.669 158.400,151.859 158.940,152.200 159.600 M234.966 175.200 C 234.966 179.270,235.025 180.935,235.098 178.900 C 235.171 176.865,235.171 173.535,235.098 171.500 C 235.025 169.465,234.966 171.130,234.966 175.200 M85.701 171.400 C 85.705 172.280,85.787 172.593,85.883 172.095 C 85.979 171.598,85.975 170.878,85.875 170.495 C 85.775 170.113,85.696 170.520,85.701 171.400 M155.724 176.200 C 155.726 177.520,155.801 178.012,155.890 177.293 C 155.979 176.574,155.977 175.494,155.886 174.893 C 155.795 174.292,155.722 174.880,155.724 176.200 M85.709 178.000 C 85.709 178.990,85.787 179.395,85.882 178.900 C 85.978 178.405,85.978 177.595,85.882 177.100 C 85.787 176.605,85.709 177.010,85.709 178.000 M226.960 187.400 C 226.961 190.700,227.022 191.997,227.098 190.282 C 227.173 188.567,227.172 185.867,227.097 184.282 C 227.021 182.697,226.959 184.100,226.960 187.400 M235.351 199.600 C 235.351 202.130,235.416 203.165,235.496 201.900 C 235.575 200.635,235.575 198.565,235.496 197.300 C 235.416 196.035,235.351 197.070,235.351 199.600 M146.770 197.900 L 145.800 199.000 146.870 198.058 C 147.501 197.504,148.143 197.241,148.432 197.420 C 148.747 197.615,148.821 197.558,148.638 197.262 C 148.208 196.565,147.834 196.693,146.770 197.900 M176.200 205.407 C 176.640 205.766,177.360 206.235,177.800 206.451 L 178.600 206.844 177.800 206.193 C 177.360 205.834,176.640 205.365,176.200 205.149 L 175.400 204.756 176.200 205.407 M227.354 213.600 C 227.354 216.350,227.418 217.475,227.496 216.100 C 227.574 214.725,227.574 212.475,227.496 211.100 C 227.418 209.725,227.354 210.850,227.354 213.600 M119.700 209.887 C 120.305 209.978,121.295 209.978,121.900 209.887 C 122.505 209.795,122.010 209.720,120.800 209.720 C 119.590 209.720,119.095 209.795,119.700 209.887 M235.600 222.400 C 235.600 223.280,235.740 224.000,235.911 224.000 C 236.081 224.000,236.152 223.280,236.069 222.400 C 235.985 221.520,235.845 220.800,235.758 220.800 C 235.671 220.800,235.600 221.520,235.600 222.400 M320.581 222.500 L 319.000 224.200 320.700 222.619 C 322.281 221.148,322.584 220.800,322.281 220.800 C 322.216 220.800,321.451 221.565,320.581 222.500 M313.100 231.882 C 313.595 231.978,314.405 231.978,314.900 231.882 C 315.395 231.787,314.990 231.709,314.000 231.709 C 313.010 231.709,312.605 231.787,313.100 231.882 M308.905 232.287 C 309.514 232.379,310.414 232.377,310.905 232.282 C 311.397 232.187,310.900 232.111,309.800 232.114 C 308.700 232.117,308.297 232.195,308.905 232.287 M304.305 232.683 C 304.802 232.779,305.522 232.775,305.905 232.675 C 306.287 232.575,305.880 232.496,305.000 232.501 C 304.120 232.505,303.807 232.587,304.305 232.683 M284.100 234.276 C 284.485 234.376,285.115 234.376,285.500 234.276 C 285.885 234.175,285.570 234.093,284.800 234.093 C 284.030 234.093,283.715 234.175,284.100 234.276 M279.305 234.687 C 279.914 234.779,280.814 234.777,281.305 234.682 C 281.797 234.587,281.300 234.511,280.200 234.514 C 279.100 234.517,278.697 234.595,279.305 234.687 M274.700 235.082 C 275.195 235.178,276.005 235.178,276.500 235.082 C 276.995 234.987,276.590 234.909,275.600 234.909 C 274.610 234.909,274.205 234.987,274.700 235.082 M96.465 236.217 C 95.795 237.688,95.923 238.002,96.647 236.665 C 96.986 236.040,97.188 235.454,97.096 235.363 C 97.005 235.271,96.721 235.656,96.465 236.217 M270.305 235.483 C 270.802 235.579,271.522 235.575,271.905 235.475 C 272.287 235.375,271.880 235.296,271.000 235.301 C 270.120 235.305,269.807 235.387,270.305 235.483 M311.900 240.282 C 312.395 240.378,313.205 240.378,313.700 240.282 C 314.195 240.187,313.790 240.109,312.800 240.109 C 311.810 240.109,311.405 240.187,311.900 240.282 M307.305 240.687 C 307.914 240.779,308.814 240.777,309.305 240.682 C 309.797 240.587,309.300 240.511,308.200 240.514 C 307.100 240.517,306.697 240.595,307.305 240.687 M303.300 241.076 C 303.685 241.176,304.315 241.176,304.700 241.076 C 305.085 240.975,304.770 240.893,304.000 240.893 C 303.230 240.893,302.915 240.975,303.300 241.076 M287.300 242.276 C 287.685 242.376,288.315 242.376,288.700 242.276 C 289.085 242.175,288.770 242.093,288.000 242.093 C 287.230 242.093,286.915 242.175,287.300 242.276 M57.300 242.687 C 57.905 242.778,58.895 242.778,59.500 242.687 C 60.105 242.595,59.610 242.520,58.400 242.520 C 57.190 242.520,56.695 242.595,57.300 242.687 M65.900 242.682 C 66.395 242.778,67.205 242.778,67.700 242.682 C 68.195 242.587,67.790 242.509,66.800 242.509 C 65.810 242.509,65.405 242.587,65.900 242.682 M282.705 242.683 C 283.202 242.779,283.922 242.775,284.305 242.675 C 284.687 242.575,284.280 242.496,283.400 242.501 C 282.520 242.505,282.207 242.587,282.705 242.683 M209.714 244.600 C 209.717 245.700,209.795 246.103,209.887 245.495 C 209.979 244.886,209.977 243.986,209.882 243.495 C 209.787 243.003,209.711 243.500,209.714 244.600 M277.700 243.087 C 278.305 243.178,279.295 243.178,279.900 243.087 C 280.505 242.995,280.010 242.920,278.800 242.920 C 277.590 242.920,277.095 242.995,277.700 243.087 M273.505 243.483 C 274.002 243.579,274.722 243.575,275.105 243.475 C 275.487 243.375,275.080 243.296,274.200 243.301 C 273.320 243.305,273.007 243.387,273.505 243.483 M268.900 243.876 C 269.285 243.976,269.915 243.976,270.300 243.876 C 270.685 243.775,270.370 243.693,269.600 243.693 C 268.830 243.693,268.515 243.775,268.900 243.876 M90.981 247.237 C 90.629 247.918,90.412 248.545,90.499 248.632 C 90.586 248.719,90.956 248.162,91.322 247.395 C 92.144 245.670,91.859 245.538,90.981 247.237 M254.101 247.400 C 254.105 248.280,254.187 248.593,254.283 248.095 C 254.379 247.598,254.375 246.878,254.275 246.495 C 254.175 246.113,254.096 246.520,254.101 247.400 M30.975 254.100 L 29.800 255.400 31.100 254.225 C 32.312 253.130,32.584 252.800,32.275 252.800 C 32.206 252.800,31.621 253.385,30.975 254.100 M96.200 256.400 C 97.728 257.940,99.069 259.200,99.179 259.200 C 99.289 259.200,98.128 257.940,96.600 256.400 C 95.072 254.860,93.731 253.600,93.621 253.600 C 93.511 253.600,94.672 254.860,96.200 256.400 M216.200 261.600 C 217.283 262.700,218.260 263.600,218.370 263.600 C 218.480 263.600,217.683 262.700,216.600 261.600 C 215.517 260.500,214.540 259.600,214.430 259.600 C 214.320 259.600,215.117 260.500,216.200 261.600 M153.000 261.200 C 152.496 261.417,152.422 261.544,152.800 261.544 C 153.130 261.544,153.760 261.389,154.200 261.200 C 154.704 260.983,154.778 260.856,154.400 260.856 C 154.070 260.856,153.440 261.011,153.000 261.200 M246.975 262.100 L 245.800 263.400 247.100 262.225 C 247.815 261.579,248.400 260.994,248.400 260.925 C 248.400 260.616,248.070 260.888,246.975 262.100 M19.381 268.837 C 19.029 269.518,18.812 270.145,18.899 270.232 C 18.986 270.319,19.356 269.762,19.722 268.995 C 20.544 267.270,20.259 267.138,19.381 268.837 M119.000 280.000 C 118.496 280.217,118.422 280.344,118.800 280.344 C 119.130 280.344,119.760 280.189,120.200 280.000 C 120.704 279.783,120.778 279.656,120.400 279.656 C 120.070 279.656,119.440 279.811,119.000 280.000 M168.087 283.100 C 167.468 283.705,167.330 283.910,167.781 283.555 C 168.231 283.200,168.960 282.710,169.400 282.467 C 169.840 282.223,169.978 282.019,169.706 282.012 C 169.435 282.005,168.706 282.495,168.087 283.100 M173.000 282.468 C 173.440 282.712,174.079 283.112,174.420 283.356 C 174.760 283.600,174.615 283.395,174.097 282.900 C 173.579 282.405,172.940 282.005,172.678 282.012 C 172.415 282.019,172.560 282.224,173.000 282.468 M110.093 283.600 C 110.093 284.370,110.175 284.685,110.276 284.300 C 110.376 283.915,110.376 283.285,110.276 282.900 C 110.175 282.515,110.093 282.830,110.093 283.600 M305.301 284.200 C 305.305 285.080,305.387 285.393,305.483 284.895 C 305.579 284.398,305.575 283.678,305.475 283.295 C 305.375 282.913,305.296 283.320,305.301 284.200 M14.524 287.400 C 14.526 288.720,14.601 289.212,14.690 288.493 C 14.779 287.774,14.777 286.694,14.686 286.093 C 14.595 285.492,14.522 286.080,14.524 287.400 M110.514 287.800 C 110.517 288.900,110.595 289.303,110.687 288.695 C 110.779 288.086,110.777 287.186,110.682 286.695 C 110.587 286.203,110.511 286.700,110.514 287.800 M303.375 288.500 L 302.200 289.800 303.500 288.625 C 304.712 287.530,304.984 287.200,304.675 287.200 C 304.606 287.200,304.021 287.785,303.375 288.500 M298.500 290.276 C 298.885 290.376,299.515 290.376,299.900 290.276 C 300.285 290.175,299.970 290.093,299.200 290.093 C 298.430 290.093,298.115 290.175,298.500 290.276 M110.514 293.000 C 110.517 294.100,110.595 294.503,110.687 293.895 C 110.779 293.286,110.777 292.386,110.682 291.895 C 110.587 291.403,110.511 291.900,110.514 293.000 M14.520 294.000 C 14.520 295.210,14.595 295.705,14.687 295.100 C 14.778 294.495,14.778 293.505,14.687 292.900 C 14.595 292.295,14.520 292.790,14.520 294.000 M98.575 322.100 L 97.400 323.400 98.700 322.225 C 99.912 321.130,100.184 320.800,99.875 320.800 C 99.806 320.800,99.221 321.385,98.575 322.100 M28.200 324.400 C 29.059 325.280,29.852 326.000,29.962 326.000 C 30.072 326.000,29.459 325.280,28.600 324.400 C 27.741 323.520,26.948 322.800,26.838 322.800 C 26.728 322.800,27.341 323.520,28.200 324.400 M93.775 326.900 L 92.600 328.200 93.900 327.025 C 95.112 325.930,95.384 325.600,95.075 325.600 C 95.006 325.600,94.421 326.185,93.775 326.900 M215.505 325.883 C 216.002 325.979,216.722 325.975,217.105 325.875 C 217.487 325.775,217.080 325.696,216.200 325.701 C 215.320 325.705,215.007 325.787,215.505 325.883 M226.000 326.791 C 226.000 327.317,227.959 328.575,228.279 328.254 C 228.419 328.114,228.323 328.000,228.067 328.000 C 227.810 328.000,227.240 327.640,226.800 327.200 C 226.360 326.760,226.000 326.576,226.000 326.791 M233.983 332.500 C 235.641 334.266,236.000 334.584,236.000 334.283 C 236.000 334.219,235.145 333.364,234.100 332.383 L 232.200 330.600 233.983 332.500 M61.300 338.691 C 62.125 338.778,63.475 338.778,64.300 338.691 C 65.125 338.605,64.450 338.534,62.800 338.534 C 61.150 338.534,60.475 338.605,61.300 338.691 M296.393 351.100 L 302.586 351.222 301.393 352.244 L 300.200 353.266 301.500 352.406 C 303.681 350.962,303.132 350.795,296.500 350.889 L 290.200 350.978 296.393 351.100 M293.800 356.827 C 293.140 357.250,292.805 357.597,293.056 357.598 C 293.306 357.599,293.936 357.246,294.456 356.813 C 295.645 355.823,295.359 355.829,293.800 356.827 M106.800 359.084 C 106.800 359.316,107.894 360.400,108.129 360.400 C 108.892 360.400,108.577 359.251,107.772 359.097 C 107.237 358.995,106.800 358.989,106.800 359.084 M247.727 359.100 C 252.527 359.164,260.267 359.163,264.927 359.099 C 269.587 359.036,265.660 358.983,256.200 358.983 C 246.740 358.983,242.927 359.036,247.727 359.100 M285.100 363.093 C 284.275 363.432,283.600 363.875,283.600 364.078 C 283.600 364.281,283.420 364.336,283.200 364.200 C 282.980 364.064,282.800 364.133,282.800 364.353 C 282.800 365.552,284.652 364.924,286.493 363.100 C 287.329 362.272,287.104 362.271,285.100 363.093 M232.575 367.700 L 231.400 369.000 232.700 367.825 C 233.415 367.179,234.000 366.594,234.000 366.525 C 234.000 366.216,233.670 366.488,232.575 367.700 " stroke="none" fill="#848ca3" fill-rule="evenodd"></path><path id="path3" d="M276.522 31.813 C 277.244 32.448,278.100 32.789,278.922 32.768 L 280.200 32.737 279.007 32.304 C 278.351 32.066,277.573 31.630,277.279 31.336 C 276.984 31.041,276.441 30.806,276.071 30.813 C 275.560 30.822,275.667 31.060,276.522 31.813 M87.185 53.184 C 86.248 53.985,86.009 54.373,86.446 54.384 C 87.184 54.402,89.200 52.929,89.200 52.371 C 89.200 51.726,88.613 51.963,87.185 53.184 M62.181 80.100 L 60.600 81.800 62.300 80.219 C 63.235 79.349,64.000 78.584,64.000 78.519 C 64.000 78.216,63.652 78.519,62.181 80.100 M131.568 99.100 C 131.759 100.481,131.787 100.509,131.919 99.451 C 131.998 98.819,131.905 98.145,131.712 97.952 C 131.510 97.750,131.449 98.240,131.568 99.100 M119.507 139.490 C 120.226 139.579,121.306 139.577,121.907 139.486 C 122.508 139.395,121.920 139.322,120.600 139.324 C 119.280 139.326,118.788 139.401,119.507 139.490 M234.937 165.000 C 234.939 166.760,235.009 167.430,235.093 166.489 C 235.178 165.549,235.177 164.109,235.091 163.289 C 235.005 162.470,234.936 163.240,234.937 165.000 M226.557 176.400 C 226.557 179.370,226.620 180.585,226.697 179.100 C 226.774 177.615,226.774 175.185,226.697 173.700 C 226.620 172.215,226.557 173.430,226.557 176.400 M85.301 174.600 C 85.305 175.480,85.387 175.793,85.483 175.295 C 85.579 174.798,85.575 174.078,85.475 173.695 C 85.375 173.313,85.296 173.720,85.301 174.600 M235.337 192.200 C 235.339 193.960,235.409 194.630,235.493 193.689 C 235.578 192.749,235.577 191.309,235.491 190.489 C 235.405 189.670,235.336 190.440,235.337 192.200 M226.951 197.600 C 226.951 200.130,227.016 201.165,227.096 199.900 C 227.175 198.635,227.175 196.565,227.096 195.300 C 227.016 194.035,226.951 195.070,226.951 197.600 M93.600 197.325 C 93.600 197.394,94.185 197.979,94.900 198.625 L 96.200 199.800 95.025 198.500 C 93.930 197.288,93.600 197.016,93.600 197.325 M332.105 217.087 C 332.714 217.179,333.614 217.177,334.105 217.082 C 334.597 216.987,334.100 216.911,333.000 216.914 C 331.900 216.917,331.497 216.995,332.105 217.087 M235.714 219.000 C 235.717 220.100,235.795 220.503,235.887 219.895 C 235.979 219.286,235.977 218.386,235.882 217.895 C 235.787 217.403,235.711 217.900,235.714 219.000 M227.331 221.000 C 227.333 222.540,227.405 223.121,227.492 222.291 C 227.579 221.461,227.577 220.201,227.489 219.491 C 227.400 218.781,227.329 219.460,227.331 221.000 M350.901 234.600 C 350.905 235.480,350.987 235.793,351.083 235.295 C 351.179 234.798,351.175 234.078,351.075 233.695 C 350.975 233.313,350.896 233.720,350.901 234.600 M314.400 240.155 C 314.400 240.240,314.930 240.387,315.579 240.482 C 316.227 240.577,316.667 240.508,316.555 240.328 C 316.357 240.007,314.400 239.850,314.400 240.155 M61.300 242.287 C 61.905 242.378,62.895 242.378,63.500 242.287 C 64.105 242.195,63.610 242.120,62.400 242.120 C 61.190 242.120,60.695 242.195,61.300 242.287 M345.578 247.100 L 344.200 248.600 345.700 247.222 C 347.096 245.938,347.384 245.600,347.078 245.600 C 347.012 245.600,346.337 246.275,345.578 247.100 M28.181 256.500 L 26.600 258.200 28.300 256.619 C 29.235 255.749,30.000 254.984,30.000 254.919 C 30.000 254.616,29.652 254.919,28.181 256.500 M298.500 277.876 C 298.885 277.976,299.515 277.976,299.900 277.876 C 300.285 277.775,299.970 277.693,299.200 277.693 C 298.430 277.693,298.115 277.775,298.500 277.876 M14.093 290.800 C 14.093 291.570,14.175 291.885,14.276 291.500 C 14.376 291.115,14.376 290.485,14.276 290.100 C 14.175 289.715,14.093 290.030,14.093 290.800 M96.378 324.700 L 95.000 326.200 96.500 324.822 C 97.896 323.538,98.184 323.200,97.878 323.200 C 97.812 323.200,97.137 323.875,96.378 324.700 M58.100 338.676 C 58.485 338.776,59.115 338.776,59.500 338.676 C 59.885 338.575,59.570 338.493,58.800 338.493 C 58.030 338.493,57.715 338.575,58.100 338.676 M246.078 350.698 C 248.431 350.769,252.391 350.769,254.878 350.699 C 257.365 350.629,255.440 350.571,250.600 350.570 C 245.760 350.570,243.725 350.628,246.078 350.698 M281.282 359.496 C 282.758 359.573,285.278 359.573,286.882 359.497 C 288.487 359.421,287.280 359.358,284.200 359.358 C 281.120 359.357,279.807 359.419,281.282 359.496 M108.616 359.974 C 108.471 360.208,108.531 360.400,108.748 360.400 C 108.965 360.400,109.426 360.683,109.771 361.029 C 110.117 361.374,110.400 361.492,110.400 361.291 C 110.400 360.624,108.899 359.516,108.616 359.974 " stroke="none" fill="#6c7489" fill-rule="evenodd"></path><path id="path4" d="M230.724 48.200 C 230.926 48.640,231.192 49.270,231.314 49.600 C 231.507 50.118,231.541 50.115,231.568 49.576 C 231.586 49.234,231.320 48.604,230.978 48.176 C 230.366 47.412,230.362 47.413,230.724 48.200 M89.167 51.986 C 89.073 52.542,88.407 53.371,87.641 53.886 C 86.893 54.389,86.485 54.800,86.735 54.800 C 87.652 54.800,89.694 52.582,89.513 51.782 C 89.361 51.114,89.311 51.143,89.167 51.986 M230.900 52.500 C 230.470 53.675,230.480 53.726,231.012 53.024 C 231.521 52.352,231.821 51.200,231.488 51.200 C 231.426 51.200,231.161 51.785,230.900 52.500 M143.021 96.135 C 142.619 96.429,142.390 96.924,142.513 97.235 C 142.689 97.680,142.744 97.664,142.768 97.161 C 142.786 96.810,143.205 96.327,143.700 96.088 C 144.195 95.849,144.409 95.642,144.176 95.627 C 143.944 95.612,143.424 95.841,143.021 96.135 M216.400 125.000 C 215.428 125.990,214.723 126.800,214.833 126.800 C 214.943 126.800,215.828 125.990,216.800 125.000 C 217.772 124.010,218.477 123.200,218.367 123.200 C 218.257 123.200,217.372 124.010,216.400 125.000 M249.328 138.000 C 249.328 139.430,249.401 140.015,249.489 139.300 C 249.578 138.585,249.578 137.415,249.489 136.700 C 249.401 135.985,249.328 136.570,249.328 138.000 M95.800 138.000 C 96.141 138.660,96.511 139.200,96.621 139.200 C 96.731 139.200,96.541 138.660,96.200 138.000 C 95.859 137.340,95.489 136.800,95.379 136.800 C 95.269 136.800,95.459 137.340,95.800 138.000 M210.909 138.400 C 210.909 139.390,210.987 139.795,211.082 139.300 C 211.178 138.805,211.178 137.995,211.082 137.500 C 210.987 137.005,210.909 137.410,210.909 138.400 M123.300 139.476 C 123.685 139.576,124.315 139.576,124.700 139.476 C 125.085 139.375,124.770 139.293,124.000 139.293 C 123.230 139.293,122.915 139.375,123.300 139.476 M113.000 140.000 C 111.981 140.438,113.032 140.438,114.400 140.000 C 115.204 139.743,115.243 139.677,114.600 139.668 C 114.160 139.662,113.440 139.811,113.000 140.000 M310.700 143.882 C 311.195 143.978,312.005 143.978,312.500 143.882 C 312.995 143.787,312.590 143.709,311.600 143.709 C 310.610 143.709,310.205 143.787,310.700 143.882 M146.400 150.600 C 147.146 151.370,147.847 152.000,147.957 152.000 C 148.067 152.000,147.546 151.370,146.800 150.600 C 146.054 149.830,145.353 149.200,145.243 149.200 C 145.133 149.200,145.654 149.830,146.400 150.600 M243.600 151.800 C 242.628 152.790,241.923 153.600,242.033 153.600 C 242.143 153.600,243.028 152.790,244.000 151.800 C 244.972 150.810,245.677 150.000,245.567 150.000 C 245.457 150.000,244.572 150.810,243.600 151.800 M234.966 156.945 C 234.851 157.244,234.814 158.549,234.884 159.845 L 235.012 162.200 235.206 159.299 C 235.401 156.388,235.354 155.933,234.966 156.945 M226.148 161.200 C 226.148 163.510,226.214 164.455,226.295 163.300 C 226.376 162.145,226.376 160.255,226.295 159.100 C 226.214 157.945,226.148 158.890,226.148 161.200 M226.560 187.400 C 226.561 190.700,226.622 191.997,226.698 190.282 C 226.773 188.567,226.772 185.867,226.697 184.282 C 226.621 182.697,226.559 184.100,226.560 187.400 M235.342 185.800 C 235.341 187.780,235.408 188.640,235.492 187.712 C 235.576 186.784,235.577 185.164,235.495 184.112 C 235.412 183.060,235.343 183.820,235.342 185.800 M226.972 211.000 C 226.972 216.060,227.029 218.075,227.099 215.477 C 227.169 212.880,227.168 208.740,227.098 206.277 C 227.028 203.815,226.971 205.940,226.972 211.000 M120.305 210.283 C 120.802 210.379,121.522 210.375,121.905 210.275 C 122.287 210.175,121.880 210.096,121.000 210.101 C 120.120 210.105,119.807 210.187,120.305 210.283 M235.737 214.200 C 235.739 215.960,235.809 216.630,235.893 215.689 C 235.978 214.749,235.977 213.309,235.891 212.489 C 235.805 211.670,235.736 212.440,235.737 214.200 M319.775 222.900 L 318.600 224.200 319.900 223.025 C 320.615 222.379,321.200 221.794,321.200 221.725 C 321.200 221.416,320.870 221.688,319.775 222.900 M299.505 232.683 C 300.002 232.779,300.722 232.775,301.105 232.675 C 301.487 232.575,301.080 232.496,300.200 232.501 C 299.320 232.505,299.007 232.587,299.505 232.683 M295.100 233.082 C 295.595 233.178,296.405 233.178,296.900 233.082 C 297.395 232.987,296.990 232.909,296.000 232.909 C 295.010 232.909,294.605 232.987,295.100 233.082 M270.500 235.076 C 270.885 235.176,271.515 235.176,271.900 235.076 C 272.285 234.975,271.970 234.893,271.200 234.893 C 270.430 234.893,270.115 234.975,270.500 235.076 M265.305 235.487 C 265.914 235.579,266.814 235.577,267.305 235.482 C 267.797 235.387,267.300 235.311,266.200 235.314 C 265.100 235.317,264.697 235.395,265.305 235.487 M261.100 235.882 C 261.595 235.978,262.405 235.978,262.900 235.882 C 263.395 235.787,262.990 235.709,262.000 235.709 C 261.010 235.709,260.605 235.787,261.100 235.882 M64.900 242.276 C 65.285 242.376,65.915 242.376,66.300 242.276 C 66.685 242.175,66.370 242.093,65.600 242.093 C 64.830 242.093,64.515 242.175,64.900 242.276 M291.300 242.287 C 291.905 242.378,292.895 242.378,293.500 242.287 C 294.105 242.195,293.610 242.120,292.400 242.120 C 291.190 242.120,290.695 242.195,291.300 242.287 M81.000 243.600 C 80.659 244.260,80.469 244.800,80.579 244.800 C 80.689 244.800,81.059 244.260,81.400 243.600 C 81.741 242.940,81.931 242.400,81.821 242.400 C 81.711 242.400,81.341 242.940,81.000 243.600 M287.300 242.676 C 287.685 242.776,288.315 242.776,288.700 242.676 C 289.085 242.575,288.770 242.493,288.000 242.493 C 287.230 242.493,286.915 242.575,287.300 242.676 M261.900 244.682 C 262.395 244.778,263.205 244.778,263.700 244.682 C 264.195 244.587,263.790 244.509,262.800 244.509 C 261.810 244.509,261.405 244.587,261.900 244.682 M257.305 245.087 C 257.914 245.179,258.814 245.177,259.305 245.082 C 259.797 244.987,259.300 244.911,258.200 244.914 C 257.100 244.917,256.697 244.995,257.305 245.087 M199.800 248.800 C 199.296 249.017,199.222 249.144,199.600 249.144 C 199.930 249.144,200.560 248.989,201.000 248.800 C 201.504 248.583,201.578 248.456,201.200 248.456 C 200.870 248.456,200.240 248.611,199.800 248.800 M33.800 251.435 L 32.600 252.466 33.900 251.606 C 34.615 251.133,35.200 250.668,35.200 250.573 C 35.200 250.273,35.031 250.378,33.800 251.435 M137.800 264.800 C 137.296 265.017,137.222 265.144,137.600 265.144 C 137.930 265.144,138.560 264.989,139.000 264.800 C 139.504 264.583,139.578 264.456,139.200 264.456 C 138.870 264.456,138.240 264.611,137.800 264.800 M241.700 265.996 C 240.985 266.432,240.400 266.875,240.400 266.981 C 240.400 267.086,241.030 266.801,241.800 266.347 C 242.570 265.893,243.200 265.449,243.200 265.360 C 243.200 265.105,243.074 265.158,241.700 265.996 M143.400 274.000 C 142.896 274.217,142.822 274.344,143.200 274.344 C 143.530 274.344,144.160 274.189,144.600 274.000 C 145.104 273.783,145.178 273.656,144.800 273.656 C 144.470 273.656,143.840 273.811,143.400 274.000 M300.800 277.886 C 301.130 278.008,301.760 278.274,302.200 278.476 C 302.987 278.838,302.988 278.834,302.224 278.222 C 301.796 277.880,301.166 277.614,300.824 277.632 C 300.285 277.659,300.282 277.693,300.800 277.886 M305.701 284.200 C 305.705 285.080,305.787 285.393,305.883 284.895 C 305.979 284.398,305.975 283.678,305.875 283.295 C 305.775 282.913,305.696 283.320,305.701 284.200 M236.229 285.029 C 236.081 285.615,236.038 286.172,236.132 286.266 C 236.227 286.360,236.424 285.958,236.571 285.371 C 236.719 284.785,236.762 284.228,236.668 284.134 C 236.573 284.040,236.376 284.442,236.229 285.029 M14.109 288.000 C 14.109 288.990,14.187 289.395,14.282 288.900 C 14.378 288.405,14.378 287.595,14.282 287.100 C 14.187 286.605,14.109 287.010,14.109 288.000 M298.500 290.676 C 298.885 290.776,299.515 290.776,299.900 290.676 C 300.285 290.575,299.970 290.493,299.200 290.493 C 298.430 290.493,298.115 290.575,298.500 290.676 M14.093 293.200 C 14.093 293.970,14.175 294.285,14.276 293.900 C 14.376 293.515,14.376 292.885,14.276 292.500 C 14.175 292.115,14.093 292.430,14.093 293.200 M14.868 299.800 C 14.862 300.240,15.011 300.960,15.200 301.400 C 15.638 302.419,15.638 301.368,15.200 300.000 C 14.943 299.196,14.877 299.157,14.868 299.800 M228.250 318.850 C 228.109 319.553,228.069 320.202,228.159 320.292 C 228.250 320.383,228.448 319.891,228.600 319.200 C 228.752 318.509,228.793 317.859,228.691 317.758 C 228.589 317.656,228.391 318.147,228.250 318.850 M215.505 325.483 C 216.002 325.579,216.722 325.575,217.105 325.475 C 217.487 325.375,217.080 325.296,216.200 325.301 C 215.320 325.305,215.007 325.387,215.505 325.483 M232.400 330.525 C 232.400 330.594,232.985 331.179,233.700 331.825 L 235.000 333.000 233.825 331.700 C 232.730 330.488,232.400 330.216,232.400 330.525 M51.200 337.582 C 51.530 337.805,52.145 337.991,52.567 337.994 C 53.590 338.002,53.271 337.773,51.800 337.444 C 50.924 337.248,50.762 337.285,51.200 337.582 M72.800 337.600 C 71.976 337.864,71.941 337.926,72.600 337.954 C 73.040 337.973,73.670 337.813,74.000 337.600 C 74.701 337.147,74.214 337.147,72.800 337.600 M241.293 347.200 C 241.293 347.970,241.375 348.285,241.476 347.900 C 241.576 347.515,241.576 346.885,241.476 346.500 C 241.375 346.115,241.293 346.430,241.293 347.200 M263.923 350.699 C 266.631 350.768,270.951 350.768,273.523 350.699 C 276.095 350.629,273.880 350.572,268.600 350.573 C 263.320 350.573,261.215 350.630,263.923 350.699 M290.893 358.580 C 289.598 359.295,289.391 359.580,290.347 359.330 C 290.802 359.211,291.382 358.863,291.636 358.557 C 292.175 357.907,292.107 357.909,290.893 358.580 M109.634 360.247 C 110.165 360.933,110.680 361.423,110.779 361.335 C 110.877 361.247,110.443 360.686,109.813 360.088 L 108.669 359.000 109.634 360.247 M239.149 359.900 C 238.663 360.519,238.673 360.543,239.236 360.104 C 239.719 359.728,244.612 359.582,259.436 359.500 L 279.000 359.392 259.349 359.296 C 241.043 359.207,239.660 359.248,239.149 359.900 M287.098 362.346 C 286.924 363.013,287.024 363.046,288.040 362.662 C 288.808 362.372,289.019 362.132,288.689 361.923 C 287.876 361.407,287.304 361.559,287.098 362.346 M285.100 362.629 C 283.605 363.440,283.696 363.778,285.200 363.000 C 285.860 362.659,286.400 362.294,286.400 362.190 C 286.400 361.932,286.357 361.947,285.100 362.629 M282.172 364.528 C 281.848 365.373,282.051 365.663,282.690 365.268 C 282.988 365.084,283.028 364.768,282.800 364.401 C 282.500 363.915,282.400 363.935,282.172 364.528 M200.000 366.200 C 200.746 366.970,201.447 367.600,201.557 367.600 C 201.667 367.600,201.146 366.970,200.400 366.200 C 199.654 365.430,198.953 364.800,198.843 364.800 C 198.733 364.800,199.254 365.430,200.000 366.200 " stroke="none" fill="#3b4b64" fill-rule="evenodd"></path></g></svg>