<?xml version="1.0" standalone="no"?>
<!DOCTYPE svg PUBLIC "-//W3C//DTD SVG 20010904//EN"
 "http://www.w3.org/TR/2001/REC-SVG-20010904/DTD/svg10.dtd">
<svg version="1.0" xmlns="http://www.w3.org/2000/svg"
 width="849.000000pt" height="851.000000pt" viewBox="0 0 849.000000 851.000000"
 preserveAspectRatio="xMidYMid meet">
<metadata>
Created by potrace 1.15, written by Peter Selinger 2001-2017
</metadata>
<g transform="translate(0.000000,851.000000) scale(0.100000,-0.100000)"
fill="#000000" stroke="none">
<path d="M3945 8180 c-372 -32 -655 -93 -1010 -217 -266 -93 -526 -218 -761
-365 -141 -88 -280 -187 -277 -196 2 -11 -18 -32 -41 -43 -18 -9 -18 -7 3 10
44 39 10 21 -42 -21 -199 -163 -328 -288 -512 -493 -237 -264 -423 -543 -585
-878 -78 -160 -105 -227 -180 -442 -151 -431 -220 -885 -207 -1370 9 -332 41
-563 123 -890 l35 -139 -21 -26 c-160 -196 -240 -366 -276 -586 -21 -127 -14
-333 15 -449 96 -381 364 -681 723 -810 138 -49 237 -65 403 -65 143 0 231 12
341 47 l51 16 89 -69 c189 -147 412 -295 450 -300 29 -3 46 -13 39 -24 -8 -13
378 -201 530 -258 320 -122 580 -188 890 -228 82 -10 121 -12 123 -5 5 15 21
14 37 -3 21 -20 227 -30 480 -23 413 12 730 66 1103 188 215 71 547 212 537
229 -2 4 16 16 41 28 25 13 42 17 38 10 -4 -6 21 4 57 24 35 20 96 53 134 73
121 66 139 79 450 324 143 112 437 404 557 551 427 525 706 1128 830 1790 23
123 23 135 21 700 -2 353 -7 602 -13 645 -54 348 -191 768 -360 1106 -50 99
-456 710 -538 809 -25 30 -98 108 -161 173 -415 425 -890 736 -1441 943 -124
46 -443 134 -489 134 -14 0 -32 6 -40 14 -18 16 -185 48 -381 71 -156 19 -613
28 -765 15z m935 -677 c28 -32 32 -41 27 -77 -13 -97 -131 -130 -187 -52 -54
74 -6 166 85 166 37 0 48 -5 75 -37z m-3115 -1344 c189 -409 349 -745 355
-747 5 -2 23 6 40 18 43 31 146 76 221 96 88 24 270 24 363 0 384 -101 625
-476 552 -858 -8 -40 -24 -99 -36 -131 -12 -33 -18 -62 -14 -67 8 -6 1287
-824 1322 -844 9 -5 24 1 40 16 46 42 88 68 154 92 l63 24 0 73 c0 242 -17
1298 -21 1320 -4 21 -16 31 -52 44 -180 68 -289 253 -261 440 20 128 110 248
226 302 164 76 337 41 462 -92 79 -85 106 -158 105 -280 0 -78 -4 -98 -31
-155 -47 -103 -142 -186 -257 -224 -17 -6 -18 -15 -12 -109 3 -56 8 -345 11
-642 3 -297 8 -570 11 -607 l6 -67 51 -17 c111 -35 203 -107 263 -205 34 -55
37 -57 72 -53 20 3 316 27 657 54 341 28 626 51 634 53 8 1 22 25 31 53 36
104 104 179 206 226 41 19 66 23 149 23 89 0 106 -3 155 -27 149 -74 239 -241
212 -394 -45 -255 -308 -391 -538 -279 -62 30 -138 109 -165 170 -11 25 -25
45 -32 45 -7 1 -303 -23 -659 -52 l-648 -52 -1 -36 c-1 -60 -33 -164 -69 -224
-40 -67 -114 -138 -179 -170 l-44 -23 -152 -644 -152 -644 56 -30 c147 -78
260 -259 261 -416 l0 -46 98 -6 c53 -4 349 -7 657 -7 l560 -1 -30 -25 c-16
-13 -77 -53 -135 -87 l-105 -62 -542 1 -542 0 -27 -49 c-86 -158 -299 -272
-475 -253 -133 13 -222 55 -317 148 -302 295 -131 799 291 858 39 6 72 11 73
13 3 3 284 1197 284 1206 0 5 -24 11 -52 14 -114 12 -222 74 -304 173 -23 29
-43 57 -46 64 -2 8 -345 -77 -1082 -267 l-1079 -279 -2 -165 c-1 -142 -5 -177
-27 -260 -109 -405 -434 -696 -848 -760 -98 -15 -282 -6 -385 20 -492 121
-826 592 -775 1091 45 428 339 777 751 890 165 45 381 45 534 -1 39 -11 80
-23 92 -26 20 -5 40 31 242 435 l220 440 -47 37 c-72 55 -156 159 -202 246
-124 239 -107 535 43 757 l36 52 -326 703 c-179 386 -334 723 -345 749 l-20
47 62 71 c35 38 65 69 67 67 1 -2 158 -338 348 -748z m2174 636 c-4 -3 -531
-192 -871 -312 -27 -9 -48 -23 -48 -30 0 -7 -4 -13 -10 -13 -5 0 -10 -10 -10
-21 0 -18 -5 -21 -31 -17 -25 4 -33 0 -45 -25 l-16 -29 -23 22 c-20 19 -28 21
-54 12 -29 -10 -30 -9 -33 21 -2 26 -9 33 -35 41 l-32 9 20 28 c19 27 19 31 5
51 -22 31 -20 35 14 42 20 3 30 12 30 23 0 35 14 45 44 32 23 -11 29 -10 50
10 23 22 24 22 30 4 9 -29 56 -23 551 71 447 85 472 90 464 81z m2748 -1160
c32 -32 35 -39 30 -78 -16 -116 -170 -133 -207 -23 -22 68 29 136 103 136 31
0 46 -7 74 -35z m-250 -3056 c62 -57 65 -136 8 -193 -38 -38 -78 -49 -127 -36
-110 31 -132 180 -35 241 43 27 117 21 154 -12z m-2769 -60 c38 -13 72 -64 72
-108 0 -46 -44 -91 -97 -98 -39 -5 -46 -2 -78 30 -28 28 -35 43 -35 74 0 47
22 80 64 99 38 16 36 16 74 3z"/>
<path d="M3061 4250 c-116 -109 -273 -177 -451 -195 -49 -5 -129 2 -230 20
l-36 7 -217 -441 c-119 -243 -217 -445 -217 -450 0 -5 12 -17 28 -27 95 -62
223 -214 295 -352 l52 -98 160 42 c88 24 575 150 1083 280 l922 237 0 37 c0
20 7 62 15 95 9 32 12 62 8 66 -15 14 -1324 849 -1331 849 -4 -1 -40 -32 -81
-70z"/>
</g>
</svg>
