<?xml version="1.0" encoding="iso-8859-1"?>
<!-- Generator: Adobe Illustrator 16.0.0, SVG Export Plug-In . SVG Version: 6.00 Build 0)  -->
<!DOCTYPE svg PUBLIC "-//W3C//DTD SVG 1.1//EN" "http://www.w3.org/Graphics/SVG/1.1/DTD/svg11.dtd">
<svg xmlns="http://www.w3.org/2000/svg" xmlns:xlink="http://www.w3.org/1999/xlink" version="1.1" id="Capa_1" x="0px" y="0px" width="512px" height="512px" viewBox="0 0 433.596 433.596" style="enable-background:new 0 0 433.596 433.596;" xml:space="preserve">
<g>
	<g>
		<g>
			<path d="M410.491,85.387h-3.479c-1.029-8.98-7.23-16.648-16.011-19.405c-29.95-9.413-60.422-14.184-90.568-14.184     c-27.827,0-55.931,4.076-83.646,12.104c-27.715-8.028-55.819-12.104-83.646-12.104c-30.147,0-60.622,4.771-90.573,14.186     C33.792,68.741,27.59,76.408,26.56,85.388h-3.456C10.343,85.388,0,95.732,0,108.491v250.204     c0,12.761,10.343,23.104,23.104,23.104h387.388c12.76,0,23.104-10.344,23.104-23.104V108.49     C433.595,95.731,423.251,85.387,410.491,85.387z M133.139,324.356c-20.121,0-40.386,2.125-60.541,6.336V168.879v-63.356     c20.177-4.992,40.475-7.517,60.542-7.517s40.364,2.524,60.541,7.517l-0.002,55.655l0.003,169.518     C173.526,326.483,153.26,324.356,133.139,324.356z M360.972,330.692c-20.155-4.209-40.421-6.336-60.541-6.336     c-20.123,0-40.386,2.125-60.542,6.336c-0.001-43.938,0-117.875,0-161.812l0.001-63.356c20.176-4.992,40.473-7.517,60.542-7.517     c20.068,0,40.365,2.524,60.54,7.517v63.355V330.692z" fill="#101e42"/>
			<path d="M171.985,155.788c-12.883-6.253-27.792-6.977-37.885-6.977c-10.093,0-25.002,0.723-37.885,6.977     c-4.968,2.412-7.041,8.394-4.629,13.363c2.412,4.968,8.393,7.041,13.363,4.629c9.176-4.454,21.032-4.969,29.152-4.969     s19.976,0.515,29.152,4.969c1.406,0.683,2.894,1.006,4.359,1.006c3.71,0,7.275-2.074,9.003-5.636     C179.026,164.182,176.954,158.2,171.985,155.788z" fill="#101e42"/>
			<path d="M171.985,205.788c-12.883-6.253-27.792-6.977-37.885-6.977c-10.093,0-25.002,0.723-37.885,6.977     c-4.968,2.412-7.041,8.394-4.629,13.362c2.412,4.968,8.393,7.041,13.363,4.63c9.176-4.455,21.032-4.97,29.152-4.97     s19.976,0.515,29.152,4.97c1.406,0.683,2.894,1.006,4.359,1.006c3.71,0,7.275-2.074,9.003-5.638     C179.026,214.182,176.954,208.2,171.985,205.788z" fill="#101e42"/>
			<path d="M171.985,255.788c-12.883-6.254-27.792-6.978-37.885-6.978c-10.093,0-25.002,0.724-37.885,6.978     c-4.968,2.412-7.041,8.394-4.629,13.362c2.412,4.97,8.393,7.041,13.363,4.63c9.176-4.455,21.032-4.97,29.152-4.97     s19.976,0.515,29.152,4.97c1.406,0.683,2.894,1.006,4.359,1.006c3.71,0,7.275-2.074,9.003-5.638     C179.026,264.182,176.954,258.2,171.985,255.788z" fill="#101e42"/>
			<path d="M337.379,155.788c-12.883-6.253-27.792-6.977-37.885-6.977c-10.094,0-25.002,0.723-37.885,6.977     c-4.97,2.412-7.041,8.394-4.629,13.363c2.41,4.968,8.394,7.041,13.361,4.629c9.176-4.454,21.032-4.969,29.152-4.969     s19.976,0.515,29.15,4.969c1.406,0.683,2.896,1.006,4.359,1.006c3.71,0,7.275-2.074,9.004-5.636     C344.42,164.182,342.347,158.2,337.379,155.788z" fill="#101e42"/>
			<path d="M337.379,205.788c-12.883-6.253-27.792-6.977-37.885-6.977c-10.094,0-25.002,0.723-37.885,6.977     c-4.97,2.412-7.041,8.394-4.629,13.362c2.41,4.968,8.394,7.041,13.361,4.63c9.176-4.455,21.032-4.97,29.152-4.97     s19.976,0.515,29.15,4.97c1.406,0.683,2.896,1.006,4.359,1.006c3.71,0,7.275-2.074,9.004-5.638     C344.42,214.182,342.347,208.2,337.379,205.788z" fill="#101e42"/>
			<path d="M337.379,255.788c-12.883-6.254-27.792-6.978-37.885-6.978c-10.094,0-25.002,0.724-37.885,6.978     c-4.97,2.412-7.041,8.394-4.629,13.362c2.41,4.97,8.394,7.041,13.361,4.63c9.176-4.455,21.032-4.97,29.152-4.97     s19.976,0.515,29.15,4.97c1.406,0.683,2.896,1.006,4.359,1.006c3.71,0,7.275-2.074,9.004-5.638     C344.42,264.182,342.347,258.2,337.379,255.788z" fill="#101e42"/>
		</g>
	</g>
</g>
<g>
</g>
<g>
</g>
<g>
</g>
<g>
</g>
<g>
</g>
<g>
</g>
<g>
</g>
<g>
</g>
<g>
</g>
<g>
</g>
<g>
</g>
<g>
</g>
<g>
</g>
<g>
</g>
<g>
</g>
</svg>
