<?xml version="1.0"?>
<svg xmlns="http://www.w3.org/2000/svg" height="512px" viewBox="0 0 512 512" width="512px"><path d="m486.398438 238.933594h-53.410157c7.125-19.109375 10.765625-39.339844 10.746094-59.734375 0-98.808594-84.214844-179.199219-187.734375-179.199219s-187.734375 80.390625-187.734375 179.199219c-.019531 20.394531 3.621094 40.625 10.746094 59.734375h-53.410157c-14.140624 0-25.601562 11.460937-25.601562 25.601562v17.066406c0 14.136719 11.460938 25.597657 25.601562 25.597657v187.734375c0 9.425781 7.640626 17.066406 17.066407 17.066406h426.664062c9.425781 0 17.066407-7.640625 17.066407-17.066406v-187.734375c14.140624 0 25.601562-11.460938 25.601562-25.597657v-17.066406c0-14.140625-11.460938-25.601562-25.601562-25.601562zm-133.84375 0c3.304687-16.878906 5.179687-34.007813 5.605468-51.199219h68.054688c-.921875 17.613281-4.886719 34.9375-11.726563 51.199219zm-88.019532 0v-51.199219h76.558594c-.453125 17.210937-2.453125 34.347656-5.972656 51.199219zm-87.683594 0c-3.519531-16.851563-5.519531-33.988282-5.972656-51.199219h76.585938v51.199219zm164.242188-68.265625h-76.558594v-152.746094c40.957032 8.140625 74.28125 74.066406 76.558594 152.746094zm-93.628906-152.746094v152.746094h-76.558594c2.320312-78.679688 35.601562-144.605469 76.558594-152.746094zm178.75 152.746094h-68.054688c-1.613281-62.710938-20.777344-115.96875-49.390625-145.578125 65.722657 19.214844 112.566407 77.277344 117.445313 145.578125zm-222.984375-145.578125c-28.613281 29.609375-47.789063 82.867187-49.390625 145.578125h-68.054688c4.878906-68.300781 51.722656-126.363281 117.445313-145.578125zm-117.445313 162.644531h68.054688c.425781 17.191406 2.300781 34.320313 5.605468 51.199219h-61.933593c-6.839844-16.261719-10.804688-33.585938-11.726563-51.199219zm221.414063 153.597656h-102.398438c-14.140625 0-25.601562 11.460938-25.601562 25.601563v128h-51.199219v-187.613282h256v187.613282h-51.199219v-128c0-14.140625-11.460937-25.601563-25.601562-25.601563zm-221.867188 153.601563v-34.132813c0-4.714843-3.820312-8.535156-8.53125-8.535156-4.714843 0-8.535156 3.820313-8.535156 8.535156v34.132813h-25.597656v-187.613282h25.597656v85.214844c0 4.710938 3.820313 8.53125 8.535156 8.53125 4.710938 0 8.53125-3.820312 8.53125-8.53125v-85.214844h25.601563v187.613282zm110.933594 0v-128c0-4.714844 3.820313-8.535156 8.535156-8.535156h102.398438c4.714843 0 8.535156 3.820312 8.535156 8.535156v128zm247.46875 0v-34.132813c0-4.714843-3.820313-8.535156-8.535156-8.535156-4.710938 0-8.53125 3.820313-8.53125 8.535156v34.132813h-25.601563v-187.613282h25.601563v85.214844c0 4.710938 3.820312 8.53125 8.53125 8.53125 4.714843 0 8.535156-3.820312 8.535156-8.53125v-85.214844h25.597656v187.613282zm51.199219-213.332032c0 4.710938-3.820313 8.53125-8.535156 8.53125h-460.796876c-4.714843 0-8.535156-3.820312-8.535156-8.53125v-17.066406c0-4.714844 3.820313-8.535156 8.535156-8.535156h460.796876c4.714843 0 8.535156 3.820312 8.535156 8.535156zm0 0" fill="#101e42"/><path d="m298.667969 426.667969c0 4.710937-3.820313 8.53125-8.535157 8.53125-4.710937 0-8.53125-3.820313-8.53125-8.53125 0-4.714844 3.820313-8.535157 8.53125-8.535157 4.714844 0 8.535157 3.820313 8.535157 8.535157zm0 0" fill="#101e42"/><path d="m51.199219 8.535156c-4.710938 0-8.53125 3.820313-8.53125 8.53125v8.535156c0 4.710938 3.820312 8.53125 8.53125 8.53125 4.714843 0 8.535156-3.820312 8.535156-8.53125v-8.535156c0-4.710937-3.820313-8.53125-8.535156-8.53125zm0 0" fill="#101e42"/><path d="m34.132812 34.132812h-8.53125c-4.714843 0-8.535156 3.820313-8.535156 8.535157 0 4.710937 3.820313 8.53125 8.535156 8.53125h8.53125c4.714844 0 8.535157-3.820313 8.535157-8.53125 0-4.714844-3.820313-8.535157-8.535157-8.535157zm0 0" fill="#101e42"/><path d="m68.265625 51.199219h8.535156c4.710938 0 8.53125-3.820313 8.53125-8.53125 0-4.714844-3.820312-8.535157-8.53125-8.535157h-8.535156c-4.710937 0-8.53125 3.820313-8.53125 8.535157 0 4.710937 3.820313 8.53125 8.53125 8.53125zm0 0" fill="#101e42"/><path d="m42.667969 68.265625c0 4.714844 3.820312 8.535156 8.53125 8.535156 4.714843 0 8.535156-3.820312 8.535156-8.535156v-8.53125c0-4.714844-3.820313-8.535156-8.535156-8.535156-4.710938 0-8.53125 3.820312-8.53125 8.535156zm0 0" fill="#101e42"/><path d="m477.867188 76.800781c4.710937 0 8.53125-3.820312 8.53125-8.535156v-8.53125c0-4.714844-3.820313-8.535156-8.53125-8.535156-4.714844 0-8.535157 3.820312-8.535157 8.535156v8.53125c0 4.714844 3.820313 8.535156 8.535157 8.535156zm0 0" fill="#101e42"/><path d="m460.800781 76.800781h-8.535156c-4.710937 0-8.53125 3.820313-8.53125 8.53125 0 4.714844 3.820313 8.535157 8.53125 8.535157h8.535156c4.710938 0 8.53125-3.820313 8.53125-8.535157 0-4.710937-3.820312-8.53125-8.53125-8.53125zm0 0" fill="#101e42"/><path d="m503.464844 76.800781h-8.53125c-4.714844 0-8.535156 3.820313-8.535156 8.53125 0 4.714844 3.820312 8.535157 8.535156 8.535157h8.53125c4.714844 0 8.535156-3.820313 8.535156-8.535157 0-4.710937-3.820312-8.53125-8.535156-8.53125zm0 0" fill="#101e42"/><path d="m469.332031 110.933594c0 4.710937 3.820313 8.53125 8.535157 8.53125 4.710937 0 8.53125-3.820313 8.53125-8.53125v-8.535156c0-4.710938-3.820313-8.53125-8.53125-8.53125-4.714844 0-8.535157 3.820312-8.535157 8.53125zm0 0" fill="#101e42"/><path d="m435.199219 25.601562c0 4.710938-3.820313 8.53125-8.53125 8.53125-4.714844 0-8.535157-3.820312-8.535157-8.53125 0-4.714843 3.820313-8.535156 8.535157-8.535156 4.710937 0 8.53125 3.820313 8.53125 8.535156zm0 0" fill="#101e42"/><path d="m34.132812 102.398438c0 4.714843-3.820312 8.535156-8.53125 8.535156-4.714843 0-8.535156-3.820313-8.535156-8.535156 0-4.710938 3.820313-8.53125 8.535156-8.53125 4.710938 0 8.53125 3.820312 8.53125 8.53125zm0 0" fill="#101e42"/></svg>
